<svg width="100" height="100" viewBox="0 0 100 100" fill="none" xmlns="http://www.w3.org/2000/svg">
<path fill-rule="evenodd" clip-rule="evenodd" d="M94.13 73.5272C97.8762 66.5151 100 58.5055 100 50C100 22.3858 77.6142 0 50 0C22.3858 0 0 22.3858 0 50C0 58.9357 2.34402 67.3239 6.45072 74.5833C8.58252 52.2164 27.4218 34.7222 50.3471 34.7222C72.9103 34.7222 91.5155 51.6681 94.13 73.5272Z" fill="black"/>
<path d="M96 50C96 75.4051 75.4051 96 50 96C24.5949 96 4 75.4051 4 50C4 24.5949 24.5949 4 50 4C75.4051 4 96 24.5949 96 50Z" stroke="black" stroke-width="8"/>
</svg>
