<svg width="100" height="100" viewBox="0 0 100 100" fill="none" xmlns="http://www.w3.org/2000/svg">
<g clip-path="url(#clip0_222_236)">
<path fill-rule="evenodd" clip-rule="evenodd" d="M89.1277 81.1322C95.933 72.5905 100 61.7702 100 50C100 22.3858 77.6142 0 50 0C22.3858 0 0 22.3858 0 50C0 55.4203 0.862473 60.6391 2.45767 65.5267C7.0938 46.1372 24.5371 31.7222 45.3472 31.7222C69.7014 31.7222 89.4445 51.4652 89.4445 75.8195C89.4445 77.6175 89.3368 79.3905 89.1277 81.1322Z" fill="black"/>
<path d="M96 50C96 75.4051 75.4051 96 50 96C24.5949 96 4 75.4051 4 50C4 24.5949 24.5949 4 50 4C75.4051 4 96 24.5949 96 50Z" stroke="black" stroke-width="8"/>
</g>
<defs>
<clipPath id="clip0_222_236">
<rect width="100" height="100" fill="white"/>
</clipPath>
</defs>
</svg>
